HIERARCHY
ROOT joint_Root
{
	OFFSET 0.0 0.0 0.0
	CHANNELS 6 Xposition Yposition Zposition Zrotation Xrotation Yrotation 
	JOINT Hips
	{
		OFFSET 4.5925 91.4895 -427.239
		CHANNELS 6 Xposition Yposition Zposition Zrotation Xrotation Yrotation 
		JOINT Spine
		{
			OFFSET 15.7357 0.0 0.0
			CHANNELS 6 Xposition Yposition Zposition Zrotation Xrotation Yrotation 
			JOINT Chest
			{
				OFFSET 8.98455 -0.406207 0.0
				CHANNELS 6 Xposition Yposition Zposition Zrotation Xrotation Yrotation 
				JOINT Neck
				{
					OFFSET 16.3773 0.0 0.0
					CHANNELS 6 Xposition Yposition Zposition Zrotation Xrotation Yrotation 
					JOINT Head
					{
						OFFSET 6.45672 0.0 0.0
						CHANNELS 6 Xposition Yposition Zposition Zrotation Xrotation Yrotation 
						End Site
						{
							OFFSET 0.0 0.0 0.0
						}
					}
				}
				JOINT Shoulder_L
				{
					OFFSET 12.9942 -0.242716 4.98039
					CHANNELS 6 Xposition Yposition Zposition Zrotation Xrotation Yrotation 
					JOINT UpperArm_L
					{
						OFFSET 5.34809 0.0 0.0
						CHANNELS 6 Xposition Yposition Zposition Zrotation Xrotation Yrotation 
						JOINT LowerArm_L
						{
							OFFSET 24.3286 1.87007e-05 0.0
							CHANNELS 6 Xposition Yposition Zposition Zrotation Xrotation Yrotation 
							JOINT Hand_L
							{
								OFFSET 22.2916 0.0 0.0
								CHANNELS 6 Xposition Yposition Zposition Zrotation Xrotation Yrotation 
								End Site
								{
									OFFSET 0.0 0.0 0.0
								}
							}
						}
					}
				}
				JOINT Shoulder_R
				{
					OFFSET 12.9945 -0.242716 -4.98039
					CHANNELS 6 Xposition Yposition Zposition Zrotation Xrotation Yrotation 
					JOINT UpperArm_R
					{
						OFFSET -5.34813 0.0 0.0
						CHANNELS 6 Xposition Yposition Zposition Zrotation Xrotation Yrotation 
						JOINT LowerArm_R
						{
							OFFSET -24.3289 0.000322201 0.0
							CHANNELS 6 Xposition Yposition Zposition Zrotation Xrotation Yrotation 
							JOINT Hand_R
							{
								OFFSET -22.2915 -0.000108084 0.0
								CHANNELS 6 Xposition Yposition Zposition Zrotation Xrotation Yrotation 
								End Site
								{
									OFFSET 0.0 0.0 0.0
								}
							}
						}
					}
				}
			}
		}
		JOINT UpperLeg_L
		{
			OFFSET -2.19248 -6.46944 0.0
			CHANNELS 6 Xposition Yposition Zposition Zrotation Xrotation Yrotation 
			JOINT LowerLeg_L
			{
				OFFSET 39.0811 0.0 -1.23785e-05
				CHANNELS 6 Xposition Yposition Zposition Zrotation Xrotation Yrotation 
				JOINT Foot_L
				{
					OFFSET 40.9854 0.0 -1.26872e-05
					CHANNELS 6 Xposition Yposition Zposition Zrotation Xrotation Yrotation 
					JOINT Toes_L
					{
						OFFSET 11.7543 0.0 0.0
						CHANNELS 6 Xposition Yposition Zposition Zrotation Xrotation Yrotation 
						End Site
						{
							OFFSET 0.0 0.0 0.0
						}
					}
				}
			}
		}
		JOINT UpperLeg_R
		{
			OFFSET -2.19251 6.46944 0.0
			CHANNELS 6 Xposition Yposition Zposition Zrotation Xrotation Yrotation 
			JOINT LowerLeg_R
			{
				OFFSET -39.0811 -0.00228153 -0.0401928
				CHANNELS 6 Xposition Yposition Zposition Zrotation Xrotation Yrotation 
				JOINT Foot_R
				{
					OFFSET -40.9854 0.0 0.0
					CHANNELS 6 Xposition Yposition Zposition Zrotation Xrotation Yrotation 
					JOINT Toes_R
					{
						OFFSET -11.7543 0.0 0.0
						CHANNELS 6 Xposition Yposition Zposition Zrotation Xrotation Yrotation 
						End Site
						{
							OFFSET 0.0 0.0 0.0
						}
					}
				}
			}
		}
	}
}
MOTION
Frames:	4
Frame Time:	0.0333333
0.000000 0.000000 0.000000 0.000000 0.000000 -0.000000 -5.506020 90.396200 -1.732830 90.317000 -1.847900 15.433200 15.735700 0.000005 -0.000001 85.462200 83.479500 -85.055600 8.984550 -0.406207 -0.000000 5.238660 -1.038490 0.859914 16.377300 -0.000001 -0.000001 33.271800 -4.637230 3.051420 6.456720 -0.000001 -0.000000 18.916200 -6.181420 -1.640170 12.994200 -0.242716 4.980390 -86.559500 -8.348520 -67.507000 5.348090 -0.000007 -0.000001 -58.601600 -42.324400 -96.558200 24.328600 0.000019 0.000005 15.405900 13.770600 -49.178200 22.291600 -0.000001 0.000005 20.545500 5.302930 -0.010045 12.994500 -0.242716 -4.980390 91.687000 -5.691330 -73.458900 -5.348130 -0.000001 -0.000004 -49.681800 -35.665900 -93.606200 -24.328900 0.000322 -0.000009 -3.531930 -2.442880 -55.362600 -22.291500 -0.000108 -0.000004 23.091900 5.473770 -5.511790 -2.192480 -6.469440 -0.000000 -170.634000 -12.272200 3.858160 39.081100 -0.000007 -0.000012 -0.256954 0.420037 31.456300 40.985400 -0.000006 -0.000013 -2.851990 6.915110 -68.706300 11.754300 -0.000000 0.000003 -0.000094 -0.000980 -16.615200 -2.192510 6.469440 -0.000001 174.204000 23.766600 -173.864000 -39.081100 -0.002282 -0.040193 -0.173419 0.283802 31.909700 -40.985400 0.000008 0.000006 6.772790 10.646300 -72.719700 -11.754300 -0.000006 -0.000006 -0.001563 -0.023108 -17.512700
0.000000 0.000000 0.000000 0.000000 0.000000 -0.000000 -5.619670 90.379400 -1.830790 90.301000 -1.808060 15.452800 15.735700 0.000005 -0.000001 85.483800 83.506400 -85.071400 8.984550 -0.406207 -0.000000 5.185270 -1.029720 0.870581 16.377300 -0.000001 -0.000001 33.500800 -4.629220 3.104000 6.456720 -0.000001 -0.000000 19.020600 -6.264660 -1.597900 12.994200 -0.242716 4.980390 -86.547000 -8.368710 -67.482100 5.348090 -0.000007 -0.000001 -58.506600 -42.344700 -96.349300 24.328600 0.000019 0.000005 15.376600 13.576600 -49.515800 22.291600 -0.000001 0.000005 20.503200 5.304030 -0.041009 12.994500 -0.242716 -4.980390 91.667900 -5.617690 -73.434500 -5.348130 -0.000001 -0.000004 -49.348300 -35.643900 -93.304000 -24.328900 0.000322 -0.000009 -3.164150 -2.165670 -55.633700 -22.291500 -0.000108 -0.000004 23.034100 5.474200 -5.528160 -2.192480 -6.469440 -0.000000 -170.569000 -12.183700 3.752710 39.081100 -0.000007 -0.000012 -0.259125 0.422284 31.534900 40.985400 -0.000006 -0.000013 -2.932190 6.899070 -68.654200 11.754300 -0.000000 0.000003 -0.000089 -0.000931 -16.613300 -2.192510 6.469440 -0.000001 174.384000 23.674100 -173.980000 -39.081100 -0.002282 -0.040193 -0.169470 0.276605 31.989100 -40.985400 0.000008 0.000006 6.817190 10.431200 -72.706000 -11.754300 -0.000006 -0.000006 -0.001684 -0.024694 -17.577200
0.000000 0.000000 0.000000 0.000000 0.000000 -0.000000 -5.723600 90.365400 -1.934000 90.293500 -1.779020 15.472300 15.735700 0.000005 -0.000001 85.605000 83.527500 -85.198900 8.984550 -0.406207 -0.000000 5.145160 -0.999196 0.856138 16.377300 -0.000001 -0.000001 33.587000 -4.610750 3.211850 6.456720 -0.000001 -0.000000 19.234200 -6.289110 -1.472480 12.994200 -0.242716 4.980390 -86.524500 -8.397510 -67.418800 5.348090 -0.000007 -0.000001 -58.158700 -42.406200 -96.041100 24.328600 0.000019 0.000005 15.434700 13.447300 -49.893100 22.291600 -0.000001 0.000005 20.582600 5.306600 -0.113674 12.994500 -0.242716 -4.980390 91.654900 -5.568550 -73.420000 -5.348130 -0.000001 -0.000004 -48.925000 -35.677700 -92.858500 -24.328900 0.000322 -0.000009 -2.887740 -1.957240 -55.887400 -22.291500 -0.000108 -0.000004 23.052200 5.475040 -5.560090 -2.192480 -6.469440 -0.000000 -170.540000 -12.049100 3.646810 39.081100 -0.000007 -0.000012 -0.260065 0.422754 31.599000 40.985400 -0.000006 -0.000013 -3.017710 6.832920 -68.596300 11.754300 -0.000000 0.000003 -0.000094 -0.000975 -16.615000 -2.192510 6.469440 -0.000001 174.617000 23.462600 -174.117000 -39.081100 -0.002282 -0.040193 -0.161109 0.262526 32.057000 -40.985400 0.000008 0.000006 6.832250 10.106500 -72.670600 -11.754300 -0.000006 -0.000006 -0.001687 -0.024730 -17.578700
0.000000 0.000000 0.000000 0.000000 0.000000 -0.000000 -5.812180 90.339100 -2.043990 90.285700 -1.748080 15.509300 15.735700 0.000005 -0.000001 85.661800 83.520800 -85.260300 8.984550 -0.406207 -0.000000 5.159380 -0.987283 0.846613 16.377300 -0.000001 -0.000001 33.704200 -4.571390 3.277940 6.456720 -0.000001 -0.000000 19.222900 -6.242840 -1.301990 12.994200 -0.242716 4.980390 -86.500700 -8.415570 -67.323400 5.348090 -0.000007 -0.000001 -57.844100 -42.535700 -95.811000 24.328600 0.000019 0.000005 15.678000 13.507800 -50.232500 22.291600 -0.000001 0.000005 20.458600 5.306580 -0.112971 12.994500 -0.242716 -4.980390 91.660500 -5.572820 -73.378100 -5.348130 -0.000001 -0.000004 -48.629400 -35.704200 -92.560600 -24.328900 0.000322 -0.000009 -2.843500 -1.922130 -55.957300 -22.291500 -0.000108 -0.000004 23.158000 5.473990 -5.520330 -2.192480 -6.469440 -0.000000 -170.538000 -11.876500 3.518550 39.081100 -0.000007 -0.000012 -0.257621 0.416520 31.737600 40.985400 -0.000006 -0.000013 -3.104970 6.692350 -68.579700 11.754300 -0.000000 0.000003 -0.000094 -0.000972 -16.614900 -2.192510 6.469440 -0.000001 174.843000 23.153400 -174.282000 -39.081100 -0.002282 -0.040193 -0.163580 0.265000 32.199800 -40.985400 0.000008 0.000006 6.812560 9.732800 -72.655600 -11.754300 -0.000006 -0.000006 -0.001878 -0.027179 -17.678300
